<?xml version="1.0" encoding="UTF-8"?>
<svg id="Layer_1" xmlns="http://www.w3.org/2000/svg" version="1.1" viewBox="0 0 937 937">
  <!-- Generator: Adobe Illustrator 29.0.1, SVG Export Plug-In . SVG Version: 2.1.0 Build 192)  -->
  <defs>
    <style>
      .st0 {
        fill: #fec35a;
      }

      .st1 {
        fill: #53c1b5;
      }

      .st2 {
        fill: #eb5323;
      }

      .st3 {
        fill: #fff;
      }

      .st4 {
        fill: #2556a6;
      }
    </style>
  </defs>
  <circle class="st3" cx="467.1" cy="469" r="457.5"/>
  <g>
    <path class="st1" d="M78.6,227.3c1.4-3.6,3.7-6.5,5.8-9.7,14.5-22.1,30.8-42.7,48.8-62,9-9.6,18.5-18.7,28.2-27.6,4.4-4.1,9.1-7.8,13.7-11.6,11.1-9.4,22.8-18.1,34.8-26.3,6.8-4.6,13.9-8.8,20.8-13.2,6.1-3.9,12.3-7.3,18.6-10.8,11.2-6.2,22.8-11.8,34.5-17,37.8-16.6,77.2-27.8,118-33.8,30.9-4.5,62-5.8,93.2-4,21.4,1.3,42.6,4,63.6,8.2,33,6.5,64.9,16.6,95.7,30.3,9.9,4.4,19.6,9,29.1,14.1,1.5.8,3.1,1.4,4.3,2.7,2,2.4,2.1,5.3,2.2,8.2.9,49.6,9.4,97.9,24.9,145.1,11.1,33.9,26,66.1,43.9,96.9,12.5,21.5,27,41.7,42.5,60.9,33.7,41.8,73.7,76.9,119.2,105.6,2.4,1.5,5.2,2.8,6.1,5.9.6,3.1,0,6.1-.2,9.2-1.4,21.4-4.2,42.5-8.5,63.5-4.4,21.5-10.3,42.5-17.7,63.2-8.4,23.2-18.5,45.6-30.5,67.2-7.6,13.6-15.7,26.8-24.7,39.6-1,1.4-2,2.7-3.1,4.1-3.9.3-6.2-2.6-8.8-4.7-22.6-17.9-46.7-33.5-72.4-46.5-35.4-18-72.5-31.1-111.4-39.4-25.5-5.4-51.3-8.4-77.3-9.4-3-.1-6.2.3-8.9-1.8h0c-2.2-1.5-2.2-3.9-2.4-6.1-4-41.1-13.6-80.9-28.7-119.4-8.6-21.9-19-42.8-30.9-63.1-8.6-14.8-18.3-28.9-28.5-42.6-24.4-32.5-52.9-60.9-85.3-85.4-40.2-30.5-84.3-53.5-132.4-68.8-46.2-14.8-93.5-21.8-142-21.4-9.2,0-18.5.6-27.7,1.2-2.3.2-4.9.9-6.5-1.6Z"/>
    <path class="st4" d="M78.6,227.3c1.4,0,2.7,0,4.1,0,35.5-3,70.8-1.5,105.9,4.1,47.7,7.6,93,22.5,135.9,44.7,31.9,16.5,61.3,36.6,88.3,60.2,11.7,10.2,22.8,21.2,33.4,32.6,15.3,16.5,29.1,34.1,41.7,52.6,6.6,9.8,12.7,19.9,18.6,30.1,15.4,26.8,27.6,55,37,84.4,9.8,30.6,16.2,61.8,19.1,93.8.1,1.5.2,3.1.3,4.6-13.5,0-27,.5-40.5,1.6-49.2,4-96.4,15.7-141.6,35.3-15.5,6.8-30.6,14.4-45.3,22.9-17.4,10-34.1,21.1-50,33.2-11.5,8.8-22.6,18.3-33.2,28.3-24.1,22.7-45.4,47.8-63.9,75.3-.3.4-.6.8-.8,1.1-1.3.5-2-.5-2.7-1.1-11.5-8.9-22.4-18.4-33-28.4-11.2-10.6-21.7-21.8-31.8-33.4-9.6-11.2-18.5-22.9-27.1-34.8-9.9-13.8-18.8-28.2-27-43-23.9-43.3-40.6-89.2-49.3-137.9-18-100.8-4.3-197.2,40.8-289.1,5.6-11.4,11.8-22.4,18.3-33.2.8-1.3,1.4-2.8,2.7-3.7Z"/>
    <path class="st0" d="M562.9,634.5c6.5-.5,13,.1,19.4.4,19,1,37.8,3.3,56.5,6.8,34.8,6.5,68.3,17,100.6,31.3,29.5,13.1,57.2,29.2,83.1,48.4,6.5,4.8,12.7,9.8,19,14.8-5.6,8.6-12.1,16.6-18.6,24.5-11.6,14.2-24,27.6-37.3,40.2-5.8,5.5-11.8,10.9-17.9,16.1-12.1,10.3-24.4,20.4-37.6,29.3-10.6,7.2-21.4,14.2-32.5,20.6-13.7,7.8-27.6,15-42,21.5-25.2,11.4-51.2,20.3-78,26.8-29,7.1-58.4,11.4-88.3,12.7-1.7,0-3.4,0-5.1,0-.1,0-.3-.2-.5-.3,0-1.4,1-2.3,1.8-3.4,11-15.9,20.9-32.5,29.7-49.7,15.2-29.8,27-61,35.3-93.4,11.9-46.7,16.1-94,12.8-142-.1-1.5-.3-3.1-.4-4.6Z"/>
    <path class="st2" d="M926.3,489.5c-10.6-6-20.6-12.9-30.5-19.9-22.8-16.2-44-34.2-63.7-54-24.3-24.3-45.7-51-64.3-79.8-36.8-56.8-61.1-118.7-72.8-185.4-4.9-27.7-7.4-55.6-7.4-83.7,1.8,0,3.2,1.2,4.7,2,29.9,16.8,57.7,36.6,83.2,59.6,12.8,11.6,25.1,23.8,36.4,36.8,13.3,15.2,25.9,30.9,37,47.9,6.7,10.2,13.3,20.3,19.2,30.9,14.6,25.8,26.6,52.8,35.9,80.9,17.1,51.8,24.8,105,23,159.6,0,1.7.2,3.4-.6,5Z"/>
    <path class="st3" d="M706.5,388c16.4,21.3,13.3,55.9-11.5,73.9-22.9,16.7-56.1,12.9-73.9-11.5-18.5-25.4-10-58.4,11.5-74,23.4-16.9,57.1-12.1,73.9,11.6Z"/>
  </g>
</svg>